# xmcd
#
# Track frame offsets:
#   150
#   18615
#   36103
#   50223
#   63467
#   78710
#   93832
#   106207
#   116459
#   130934
#   145725
#   163136
#   178504
#   194007
#   209835
#   228076
#   242021
#   261733
#   276938
#   289246
#
# Disc length: 4064 seconds
#
# Revision: 0
# Processed by: cddbd v1.5.1PL0 Copyright (c) Steve Scherf et al.
# Submitted via: Media_Universe 3.0
#
DISCID=380fde14
DTITLE=Rhett Akins - Somebody new and A Tousand Memories
DYEAR=1900
DGENRE=Country
TTITLE0=No Match (for that old flame)
TTITLE1=Love You Back
TTITLE2=Somebody New
TTITLE3=K-I-S-S-I-N-G
TTITLE4=Dont Get Me Started
TTITLE5=Where Angels Live
TTITLE6=Too Much Texas
TTITLE7=Every Cowboys Dream
TTITLE8=Carolina Line
TTITLE9=I Was Wrong
TTITLE10=Heart To Heart
TTITLE11=What Theyre Talking About
TTITLE12=Old Dirt Road
TTITLE13=She Said Yes
TTITLE14=That Aint My Truck
TTITLE15=Katy Brought My Guitat Back Today
TTITLE16=A Thousand Memories
TTITLE17=I Brake For Brunettes
TTITLE18=Same Ol Story
TTITLE19=Those Hands
EXTD=
EXTT0=
EXTT1=
EXTT2=
EXTT3=
EXTT4=
EXTT5=
EXTT6=
EXTT7=
EXTT8=
EXTT9=
EXTT10=
EXTT11=
EXTT12=
EXTT13=
EXTT14=
EXTT15=
EXTT16=
EXTT17=
EXTT18=
EXTT19=
PLAYORDER=
